<mxfile host="app.diagrams.net" agent="Mozilla/5.0 (Windows NT 10.0; Win64; x64) AppleWebKit/537.36 (KHTML, like Gecko) Chrome/139.0.0.0 Safari/537.36" version="28.1.1">
  <diagram name="Page-1" id="OcmLWUjMkOl3i37zBU_I">
    <mxGraphModel dx="1489" dy="803" grid="1" gridSize="10" guides="1" tooltips="1" connect="1" arrows="1" fold="1" page="1" pageScale="1" pageWidth="1390" pageHeight="980" math="0" shadow="0">
      <root>
        <mxCell id="0" />
        <mxCell id="1" parent="0" />
        <mxCell id="N2wWl2Ot6sQUkZXI2MRP-4" style="edgeStyle=orthogonalEdgeStyle;rounded=0;orthogonalLoop=1;jettySize=auto;html=1;entryX=0;entryY=0.5;entryDx=0;entryDy=0;" edge="1" parent="1" source="N2wWl2Ot6sQUkZXI2MRP-2" target="N2wWl2Ot6sQUkZXI2MRP-3">
          <mxGeometry relative="1" as="geometry" />
        </mxCell>
        <mxCell id="N2wWl2Ot6sQUkZXI2MRP-2" value="" style="shape=waypoint;sketch=0;fillStyle=solid;size=6;pointerEvents=1;points=[];fillColor=none;resizable=0;rotatable=0;perimeter=centerPerimeter;snapToPoint=1;" vertex="1" parent="1">
          <mxGeometry x="140" y="170" width="20" height="20" as="geometry" />
        </mxCell>
        <mxCell id="N2wWl2Ot6sQUkZXI2MRP-6" style="edgeStyle=orthogonalEdgeStyle;rounded=0;orthogonalLoop=1;jettySize=auto;html=1;entryX=0;entryY=0.5;entryDx=0;entryDy=0;" edge="1" parent="1" source="N2wWl2Ot6sQUkZXI2MRP-3" target="N2wWl2Ot6sQUkZXI2MRP-5">
          <mxGeometry relative="1" as="geometry" />
        </mxCell>
        <mxCell id="N2wWl2Ot6sQUkZXI2MRP-3" value="Login" style="rounded=1;whiteSpace=wrap;html=1;" vertex="1" parent="1">
          <mxGeometry x="210" y="155" width="80" height="50" as="geometry" />
        </mxCell>
        <mxCell id="N2wWl2Ot6sQUkZXI2MRP-11" style="edgeStyle=orthogonalEdgeStyle;rounded=0;orthogonalLoop=1;jettySize=auto;html=1;" edge="1" parent="1" source="N2wWl2Ot6sQUkZXI2MRP-5">
          <mxGeometry relative="1" as="geometry">
            <mxPoint x="375" y="260" as="targetPoint" />
          </mxGeometry>
        </mxCell>
        <mxCell id="N2wWl2Ot6sQUkZXI2MRP-12" value="No" style="edgeLabel;html=1;align=center;verticalAlign=middle;resizable=0;points=[];" vertex="1" connectable="0" parent="N2wWl2Ot6sQUkZXI2MRP-11">
          <mxGeometry x="-0.2238" y="-2" relative="1" as="geometry">
            <mxPoint as="offset" />
          </mxGeometry>
        </mxCell>
        <mxCell id="N2wWl2Ot6sQUkZXI2MRP-14" style="edgeStyle=orthogonalEdgeStyle;rounded=0;orthogonalLoop=1;jettySize=auto;html=1;" edge="1" parent="1" source="N2wWl2Ot6sQUkZXI2MRP-5">
          <mxGeometry relative="1" as="geometry">
            <mxPoint x="490" y="180" as="targetPoint" />
          </mxGeometry>
        </mxCell>
        <mxCell id="N2wWl2Ot6sQUkZXI2MRP-15" value="Yes" style="edgeLabel;html=1;align=center;verticalAlign=middle;resizable=0;points=[];" vertex="1" connectable="0" parent="N2wWl2Ot6sQUkZXI2MRP-14">
          <mxGeometry x="0.0369" y="2" relative="1" as="geometry">
            <mxPoint as="offset" />
          </mxGeometry>
        </mxCell>
        <mxCell id="N2wWl2Ot6sQUkZXI2MRP-5" value="" style="rhombus;whiteSpace=wrap;html=1;" vertex="1" parent="1">
          <mxGeometry x="350" y="150" width="50" height="60" as="geometry" />
        </mxCell>
        <mxCell id="N2wWl2Ot6sQUkZXI2MRP-7" value="Successful?&lt;div&gt;&lt;br&gt;&lt;/div&gt;" style="text;html=1;align=center;verticalAlign=middle;resizable=0;points=[];autosize=1;strokeColor=none;fillColor=none;" vertex="1" parent="1">
          <mxGeometry x="330" y="115" width="90" height="40" as="geometry" />
        </mxCell>
        <mxCell id="N2wWl2Ot6sQUkZXI2MRP-13" value="End(error)" style="rounded=1;whiteSpace=wrap;html=1;" vertex="1" parent="1">
          <mxGeometry x="330" y="260" width="90" height="50" as="geometry" />
        </mxCell>
        <mxCell id="N2wWl2Ot6sQUkZXI2MRP-17" style="edgeStyle=orthogonalEdgeStyle;rounded=0;orthogonalLoop=1;jettySize=auto;html=1;" edge="1" parent="1" source="N2wWl2Ot6sQUkZXI2MRP-16">
          <mxGeometry relative="1" as="geometry">
            <mxPoint x="630" y="177.5" as="targetPoint" />
          </mxGeometry>
        </mxCell>
        <mxCell id="N2wWl2Ot6sQUkZXI2MRP-16" value="Encrypt and upload quiz" style="rounded=1;whiteSpace=wrap;html=1;" vertex="1" parent="1">
          <mxGeometry x="490" y="155" width="100" height="45" as="geometry" />
        </mxCell>
        <mxCell id="N2wWl2Ot6sQUkZXI2MRP-19" style="edgeStyle=orthogonalEdgeStyle;rounded=0;orthogonalLoop=1;jettySize=auto;html=1;" edge="1" parent="1" source="N2wWl2Ot6sQUkZXI2MRP-18">
          <mxGeometry relative="1" as="geometry">
            <mxPoint x="770" y="175" as="targetPoint" />
          </mxGeometry>
        </mxCell>
        <mxCell id="N2wWl2Ot6sQUkZXI2MRP-18" value="Book Lab" style="rounded=1;whiteSpace=wrap;html=1;" vertex="1" parent="1">
          <mxGeometry x="630" y="150" width="90" height="50" as="geometry" />
        </mxCell>
        <mxCell id="N2wWl2Ot6sQUkZXI2MRP-22" style="edgeStyle=orthogonalEdgeStyle;rounded=0;orthogonalLoop=1;jettySize=auto;html=1;" edge="1" parent="1" source="N2wWl2Ot6sQUkZXI2MRP-20">
          <mxGeometry relative="1" as="geometry">
            <mxPoint x="795" y="260" as="targetPoint" />
          </mxGeometry>
        </mxCell>
        <mxCell id="N2wWl2Ot6sQUkZXI2MRP-23" value="No" style="edgeLabel;html=1;align=center;verticalAlign=middle;resizable=0;points=[];" vertex="1" connectable="0" parent="N2wWl2Ot6sQUkZXI2MRP-22">
          <mxGeometry x="0.086" y="-2" relative="1" as="geometry">
            <mxPoint as="offset" />
          </mxGeometry>
        </mxCell>
        <mxCell id="N2wWl2Ot6sQUkZXI2MRP-25" style="edgeStyle=orthogonalEdgeStyle;rounded=0;orthogonalLoop=1;jettySize=auto;html=1;" edge="1" parent="1" source="N2wWl2Ot6sQUkZXI2MRP-20">
          <mxGeometry relative="1" as="geometry">
            <mxPoint x="880" y="172.5" as="targetPoint" />
          </mxGeometry>
        </mxCell>
        <mxCell id="N2wWl2Ot6sQUkZXI2MRP-20" value="" style="rhombus;whiteSpace=wrap;html=1;" vertex="1" parent="1">
          <mxGeometry x="770" y="140" width="50" height="65" as="geometry" />
        </mxCell>
        <mxCell id="N2wWl2Ot6sQUkZXI2MRP-21" value="Booking Valid?&lt;div&gt;&lt;br&gt;&lt;/div&gt;" style="text;html=1;align=center;verticalAlign=middle;resizable=0;points=[];autosize=1;strokeColor=none;fillColor=none;" vertex="1" parent="1">
          <mxGeometry x="740" y="110" width="100" height="40" as="geometry" />
        </mxCell>
        <mxCell id="N2wWl2Ot6sQUkZXI2MRP-24" value="End(Invalid booking)" style="rounded=1;whiteSpace=wrap;html=1;" vertex="1" parent="1">
          <mxGeometry x="750" y="260" width="90" height="40" as="geometry" />
        </mxCell>
        <mxCell id="N2wWl2Ot6sQUkZXI2MRP-27" style="edgeStyle=orthogonalEdgeStyle;rounded=0;orthogonalLoop=1;jettySize=auto;html=1;" edge="1" parent="1" source="N2wWl2Ot6sQUkZXI2MRP-26">
          <mxGeometry relative="1" as="geometry">
            <mxPoint x="930" y="320" as="targetPoint" />
          </mxGeometry>
        </mxCell>
        <mxCell id="N2wWl2Ot6sQUkZXI2MRP-26" value="Student login at timeslot&lt;div&gt;&lt;br&gt;&lt;/div&gt;" style="rounded=1;whiteSpace=wrap;html=1;" vertex="1" parent="1">
          <mxGeometry x="880" y="148" width="100" height="42" as="geometry" />
        </mxCell>
        <mxCell id="N2wWl2Ot6sQUkZXI2MRP-29" style="edgeStyle=orthogonalEdgeStyle;rounded=0;orthogonalLoop=1;jettySize=auto;html=1;" edge="1" parent="1" source="N2wWl2Ot6sQUkZXI2MRP-28">
          <mxGeometry relative="1" as="geometry">
            <mxPoint x="1060" y="350" as="targetPoint" />
          </mxGeometry>
        </mxCell>
        <mxCell id="N2wWl2Ot6sQUkZXI2MRP-31" style="edgeStyle=orthogonalEdgeStyle;rounded=0;orthogonalLoop=1;jettySize=auto;html=1;" edge="1" parent="1" source="N2wWl2Ot6sQUkZXI2MRP-28">
          <mxGeometry relative="1" as="geometry">
            <mxPoint x="940" y="460" as="targetPoint" />
          </mxGeometry>
        </mxCell>
        <mxCell id="N2wWl2Ot6sQUkZXI2MRP-28" value="Secure exam viewer/IDE" style="rounded=1;whiteSpace=wrap;html=1;" vertex="1" parent="1">
          <mxGeometry x="880" y="320" width="120" height="60" as="geometry" />
        </mxCell>
        <mxCell id="N2wWl2Ot6sQUkZXI2MRP-30" value="Student submits" style="rounded=1;whiteSpace=wrap;html=1;" vertex="1" parent="1">
          <mxGeometry x="1060" y="320" width="120" height="60" as="geometry" />
        </mxCell>
        <mxCell id="N2wWl2Ot6sQUkZXI2MRP-33" style="edgeStyle=orthogonalEdgeStyle;rounded=0;orthogonalLoop=1;jettySize=auto;html=1;" edge="1" parent="1" source="N2wWl2Ot6sQUkZXI2MRP-32">
          <mxGeometry relative="1" as="geometry">
            <mxPoint x="800" y="490" as="targetPoint" />
          </mxGeometry>
        </mxCell>
        <mxCell id="N2wWl2Ot6sQUkZXI2MRP-32" value="Auto Grader" style="rounded=1;whiteSpace=wrap;html=1;" vertex="1" parent="1">
          <mxGeometry x="880" y="460" width="120" height="60" as="geometry" />
        </mxCell>
        <mxCell id="N2wWl2Ot6sQUkZXI2MRP-36" style="edgeStyle=orthogonalEdgeStyle;rounded=0;orthogonalLoop=1;jettySize=auto;html=1;" edge="1" parent="1" source="N2wWl2Ot6sQUkZXI2MRP-34">
          <mxGeometry relative="1" as="geometry">
            <mxPoint x="670" y="490" as="targetPoint" />
          </mxGeometry>
        </mxCell>
        <mxCell id="N2wWl2Ot6sQUkZXI2MRP-37" value="Yes" style="edgeLabel;html=1;align=center;verticalAlign=middle;resizable=0;points=[];" vertex="1" connectable="0" parent="N2wWl2Ot6sQUkZXI2MRP-36">
          <mxGeometry x="-0.0213" y="-3" relative="1" as="geometry">
            <mxPoint y="-1" as="offset" />
          </mxGeometry>
        </mxCell>
        <mxCell id="N2wWl2Ot6sQUkZXI2MRP-44" style="edgeStyle=orthogonalEdgeStyle;rounded=0;orthogonalLoop=1;jettySize=auto;html=1;" edge="1" parent="1" source="N2wWl2Ot6sQUkZXI2MRP-34">
          <mxGeometry relative="1" as="geometry">
            <mxPoint x="770" y="580" as="targetPoint" />
          </mxGeometry>
        </mxCell>
        <mxCell id="N2wWl2Ot6sQUkZXI2MRP-45" value="No" style="edgeLabel;html=1;align=center;verticalAlign=middle;resizable=0;points=[];" vertex="1" connectable="0" parent="N2wWl2Ot6sQUkZXI2MRP-44">
          <mxGeometry x="-0.1406" y="1" relative="1" as="geometry">
            <mxPoint as="offset" />
          </mxGeometry>
        </mxCell>
        <mxCell id="N2wWl2Ot6sQUkZXI2MRP-34" value="" style="rhombus;whiteSpace=wrap;html=1;" vertex="1" parent="1">
          <mxGeometry x="740" y="460" width="60" height="60" as="geometry" />
        </mxCell>
        <mxCell id="N2wWl2Ot6sQUkZXI2MRP-35" value="Success?" style="text;html=1;align=center;verticalAlign=middle;resizable=0;points=[];autosize=1;strokeColor=none;fillColor=none;" vertex="1" parent="1">
          <mxGeometry x="725" y="430" width="80" height="30" as="geometry" />
        </mxCell>
        <mxCell id="N2wWl2Ot6sQUkZXI2MRP-39" style="edgeStyle=orthogonalEdgeStyle;rounded=0;orthogonalLoop=1;jettySize=auto;html=1;" edge="1" parent="1" source="N2wWl2Ot6sQUkZXI2MRP-38">
          <mxGeometry relative="1" as="geometry">
            <mxPoint x="490" y="490" as="targetPoint" />
          </mxGeometry>
        </mxCell>
        <mxCell id="N2wWl2Ot6sQUkZXI2MRP-38" value="Faculty review and override" style="rounded=1;whiteSpace=wrap;html=1;" vertex="1" parent="1">
          <mxGeometry x="550" y="460" width="120" height="60" as="geometry" />
        </mxCell>
        <mxCell id="N2wWl2Ot6sQUkZXI2MRP-41" style="edgeStyle=orthogonalEdgeStyle;rounded=0;orthogonalLoop=1;jettySize=auto;html=1;" edge="1" parent="1" source="N2wWl2Ot6sQUkZXI2MRP-40">
          <mxGeometry relative="1" as="geometry">
            <mxPoint x="310" y="490" as="targetPoint" />
          </mxGeometry>
        </mxCell>
        <mxCell id="N2wWl2Ot6sQUkZXI2MRP-40" value="Reports generated" style="rounded=1;whiteSpace=wrap;html=1;" vertex="1" parent="1">
          <mxGeometry x="370" y="460" width="120" height="60" as="geometry" />
        </mxCell>
        <mxCell id="N2wWl2Ot6sQUkZXI2MRP-42" value="" style="shape=waypoint;sketch=0;fillStyle=solid;size=6;pointerEvents=1;points=[];fillColor=none;resizable=0;rotatable=0;perimeter=centerPerimeter;snapToPoint=1;" vertex="1" parent="1">
          <mxGeometry x="300" y="480" width="20" height="20" as="geometry" />
        </mxCell>
        <mxCell id="N2wWl2Ot6sQUkZXI2MRP-43" value="End" style="text;html=1;align=center;verticalAlign=middle;resizable=0;points=[];autosize=1;strokeColor=none;fillColor=none;" vertex="1" parent="1">
          <mxGeometry x="250" y="475" width="40" height="30" as="geometry" />
        </mxCell>
        <mxCell id="N2wWl2Ot6sQUkZXI2MRP-46" value="Store Results + Notify Faculty" style="rounded=1;whiteSpace=wrap;html=1;" vertex="1" parent="1">
          <mxGeometry x="720" y="580" width="100" height="40" as="geometry" />
        </mxCell>
        <mxCell id="N2wWl2Ot6sQUkZXI2MRP-47" value="Start" style="text;html=1;align=center;verticalAlign=middle;whiteSpace=wrap;rounded=0;" vertex="1" parent="1">
          <mxGeometry x="110" y="140" width="60" height="30" as="geometry" />
        </mxCell>
      </root>
    </mxGraphModel>
  </diagram>
</mxfile>
